<svg id="Group_55" data-name="Group 55" xmlns="http://www.w3.org/2000/svg" xmlns:xlink="http://www.w3.org/1999/xlink" width="12.494" height="17.976" viewBox="0 0 12.494 17.976">
  <defs>
    <clipPath id="clip-path">
      <rect id="Rectangle_89" data-name="Rectangle 89" width="12.494" height="17.976" fill="#a0a0a0"/>
    </clipPath>
  </defs>
  <g id="Group_52" data-name="Group 52" clip-path="url(#clip-path)">
    <path id="Path_175" data-name="Path 175" d="M12.471,17.274c-.008-.034-.017-.068-.026-.1Q10.9,11.565,9.351,5.957c-.014-.052-.022-.1-.035-.171.059.014.092.02.126.03.649.173,1.3.35,1.947.52a.519.519,0,0,0,.676-.448.913.913,0,0,0-.045-.309c-.448-1.682-.9-3.362-1.346-5.045A.7.7,0,0,0,10.249,0H2.243a.623.623,0,0,0-.386.4Q1.155,3.031.451,5.663a.523.523,0,0,0,.67.667c.435-.113.869-.232,1.3-.348.246-.066.492-.129.76-.2-.019.077-.03.127-.043.176l-1.2,4.34Q.984,13.779.027,17.259a.522.522,0,0,0,.508.714q1.966.006,3.932,0a.523.523,0,0,0,.55-.483q.176-1.233.347-2.466.394-2.831.787-5.662c.024-.173.053-.345.079-.518.1.436.162.868.222,1.3q.512,3.664,1.023,7.328a.529.529,0,0,0,.571.5q1.948,0,3.9,0a.524.524,0,0,0,.528-.7M10.8,5.088,7.3,4.151,9.864,1.593,10.8,5.088m-9.107,0,.936-3.5,2.56,2.559-3.5.937M4.035,16.914H1.213c.165-.6.323-1.178.483-1.757Q3.005,10.412,4.31,5.665A.319.319,0,0,1,4.581,5.4c.361-.084.718-.187,1.1-.289l-1.648,11.8m2.211-13.3L3.691,1.063H8.8L6.246,3.618M8.458,16.912,6.81,5.11c.438.117.85.221,1.256.344.052.015.088.127.108.2q.665,2.4,1.325,4.8.873,3.167,1.744,6.334c.01.039.017.078.029.128Z" transform="translate(0)" fill="#a0a0a0"/>
  </g>
</svg>
