<svg xmlns="http://www.w3.org/2000/svg" width="15.695" height="16.592" viewBox="0 0 15.695 16.592">
  <g id="home-1_outline" transform="translate(-6.5 -4.5)">
    <path id="Path_170" data-name="Path 170" d="M14.347,4.5a.671.671,0,0,1,.443.166l7.175,6.278a.673.673,0,0,1,.23.506v8.968a.673.673,0,0,1-.673.673H17.038a.673.673,0,0,1-.673-.673V16.832a2.018,2.018,0,0,0-4.036,0v3.587a.673.673,0,0,1-.673.673H7.173a.673.673,0,0,1-.673-.673V11.451a.673.673,0,0,1,.23-.506L13.9,4.666A.671.671,0,0,1,14.347,4.5Zm6.5,7.256-6.5-5.689-6.5,5.689v7.991h3.139V16.832a3.363,3.363,0,0,1,6.726,0v2.915H20.85Z" transform="translate(0)" fill="#fff"/>
  </g>
</svg>
