<svg id="law" xmlns="http://www.w3.org/2000/svg" width="17.988" height="17.988" viewBox="0 0 17.988 17.988">
  <path id="Path_578" data-name="Path 578" d="M17.672,17.672a1.06,1.06,0,0,1-1.511,0L8.274,9.784,6.429,11.629v.018A1.081,1.081,0,0,1,4.9,13.175L.316,8.59a1.081,1.081,0,0,1,0-1.528,1.041,1.041,0,0,1,.764-.316,1.041,1.041,0,0,1,.764.316l.018.018L7.079,1.862l-.018-.018a1.041,1.041,0,0,1-.316-.764A1.041,1.041,0,0,1,7.062.316a1.081,1.081,0,0,1,1.528,0L13.175,4.9a1.081,1.081,0,0,1-1.528,1.528l-.018-.018L9.784,8.256l7.887,7.9a1.06,1.06,0,0,1,0,1.511ZM5.92,4.392,4.409,5.92,7.589,9.1,9.1,7.589Z" transform="translate(0 0)" fill="#a0a0a0"/>
</svg>
