<svg xmlns="http://www.w3.org/2000/svg" width="16" height="14.857" viewBox="0 0 16 14.857">
  <g id="folder-details" transform="translate(-3 -6)">
    <path id="Path_171" data-name="Path 171" d="M24,30h8v1.143H24Z" transform="translate(-13 -14.857)" fill="#a0a0a0"/>
    <path id="Path_172" data-name="Path 172" d="M24,36h8v1.143H24Z" transform="translate(-13 -18.571)" fill="#a0a0a0"/>
    <path id="Path_173" data-name="Path 173" d="M24,42h4v1.143H24Z" transform="translate(-13 -22.286)" fill="#a0a0a0"/>
    <path id="Path_174" data-name="Path 174" d="M9.857,18.571H4.143V7.143h4.1l1.954,1.949.331.337h7.331V14H19V9.429a1.143,1.143,0,0,0-1.143-1.143H11L9.051,6.337A1.143,1.143,0,0,0,8.24,6h-4.1A1.143,1.143,0,0,0,3,7.143V18.571a1.143,1.143,0,0,0,1.143,1.143H9.857Z" transform="translate(0)" fill="#a0a0a0"/>
  </g>
</svg>
