<svg xmlns="http://www.w3.org/2000/svg" width="16.625" height="4.193" viewBox="0 0 16.625 4.193">
  <g id="more" transform="translate(0 -18.625)">
    <path id="Path_579" data-name="Path 579" d="M2.072,18.625a2,2,0,0,1,1.463.609,2.119,2.119,0,0,1,0,2.974,2,2,0,0,1-1.463.609,2,2,0,0,1-1.463-.609,2.119,2.119,0,0,1,0-2.974A2,2,0,0,1,2.072,18.625Zm12.481,0a2,2,0,0,1,1.463.609,2.119,2.119,0,0,1,0,2.974,2.06,2.06,0,0,1-2.925,0,2.119,2.119,0,0,1,0-2.974A2,2,0,0,1,14.553,18.625Zm-6.24,0a2,2,0,0,1,1.463.609,2.119,2.119,0,0,1,0,2.974,2.06,2.06,0,0,1-2.925,0,2.119,2.119,0,0,1,0-2.974A2,2,0,0,1,8.312,18.625Z" transform="translate(0)" fill="#a0a0a0"/>
  </g>
</svg>
