<svg xmlns="http://www.w3.org/2000/svg" width="18.481" height="17.527" viewBox="0 0 18.481 17.527">
  <g id="chat-typing_duoline" transform="translate(0 -5.76)">
    <g id="Group_54" data-name="Group 54" transform="translate(0 5.76)">
      <path id="Path_176" data-name="Path 176" d="M12.013,7.146H6.469c-1.327,0-2.217,0-2.9.071a2.458,2.458,0,0,0-1.159.319,2.31,2.31,0,0,0-.637.637,2.458,2.458,0,0,0-.319,1.159c-.069.679-.071,1.57-.071,2.9V15.74a1.571,1.571,0,0,0,1.571,1.571,2.125,2.125,0,0,1,2.125,2.125v1.109c0,.369,0,.668.005.914.2-.144.439-.323.734-.544L8.779,18.7l.072-.054a8.343,8.343,0,0,1,1.112-.752,5.085,5.085,0,0,1,1.545-.515,8.351,8.351,0,0,1,1.34-.066h.09c.88,0,1.471,0,1.928-.032a2.549,2.549,0,0,0,.8-.144,2.31,2.31,0,0,0,1.25-1.25,2.549,2.549,0,0,0,.144-.8c.031-.457.032-1.048.032-1.928v-.924c0-1.327,0-2.217-.071-2.9a2.459,2.459,0,0,0-.319-1.159,2.31,2.31,0,0,0-.637-.637,2.458,2.458,0,0,0-1.159-.319C14.23,7.148,13.34,7.146,12.013,7.146ZM.623,7.4C0,8.335,0,9.633,0,12.229V15.74A2.957,2.957,0,0,0,2.957,18.7a.739.739,0,0,1,.739.739v1.109c0,1.613,0,2.419.511,2.675s1.156-.228,2.446-1.2L9.61,19.806a7.808,7.808,0,0,1,1-.687,3.693,3.693,0,0,1,1.123-.374,7.8,7.8,0,0,1,1.208-.048,9.217,9.217,0,0,0,3.263-.281,3.7,3.7,0,0,0,2-2,9.217,9.217,0,0,0,.281-3.263v-.924c0-2.6,0-3.893-.623-4.826a3.7,3.7,0,0,0-1.02-1.02c-.932-.623-2.23-.623-4.826-.623H6.469c-2.6,0-3.893,0-4.826.623A3.7,3.7,0,0,0,.623,7.4Z" transform="translate(0 -5.76)" fill="#fff" fill-rule="evenodd"/>
      <path id="Path_177" data-name="Path 177" d="M51.732,38.826a1.386,1.386,0,1,1-1.386-1.386A1.386,1.386,0,0,1,51.732,38.826Z" transform="translate(-41.105 -32.358)" fill="#fff"/>
      <path id="Path_178" data-name="Path 178" d="M25.812,38.826a1.386,1.386,0,1,1-1.386-1.386A1.386,1.386,0,0,1,25.812,38.826Z" transform="translate(-19.344 -32.358)" fill="#fff"/>
      <path id="Path_179" data-name="Path 179" d="M77.652,38.826a1.386,1.386,0,1,1-1.386-1.386A1.386,1.386,0,0,1,77.652,38.826Z" transform="translate(-62.867 -32.358)" fill="#fff"/>
    </g>
  </g>
</svg>
